<?xml version="1.0" encoding="UTF-8" standalone="no"?>
<svg
   version="1.1"
   viewBox="127 319 128 128"
   width="128"
   height="128"
   id="svg17"
   xmlns="http://www.w3.org/2000/svg"
   xmlns:svg="http://www.w3.org/2000/svg"
   xmlns:rdf="http://www.w3.org/1999/02/22-rdf-syntax-ns#"
   xmlns:cc="http://creativecommons.org/ns#"
   xmlns:dc="http://purl.org/dc/elements/1.1/">
  <title
     id="title17">Poietic Playground UI Icons</title>
  <defs
     id="defs1" />
  <metadata
     id="metadata17">
    <rdf:RDF>
      <cc:Work
         rdf:about="">
        <dc:title>Poietic Playground UI Icons</dc:title>
        <dc:creator>
          <cc:Agent>
            <dc:title>Stefan Urbanek</dc:title>
          </cc:Agent>
        </dc:creator>
        <cc:license
           rdf:resource="http://creativecommons.org/licenses/by-sa/4.0/" />
      </cc:Work>
      <cc:License
         rdf:about="http://creativecommons.org/licenses/by-sa/4.0/">
        <cc:permits
           rdf:resource="http://creativecommons.org/ns#Reproduction" />
        <cc:permits
           rdf:resource="http://creativecommons.org/ns#Distribution" />
        <cc:requires
           rdf:resource="http://creativecommons.org/ns#Notice" />
        <cc:requires
           rdf:resource="http://creativecommons.org/ns#Attribution" />
        <cc:permits
           rdf:resource="http://creativecommons.org/ns#DerivativeWorks" />
        <cc:requires
           rdf:resource="http://creativecommons.org/ns#ShareAlike" />
      </cc:License>
    </rdf:RDF>
  </metadata>
  <g
     id="layer2"
     transform="translate(-16,-176)">
    <g
       id="Graphic_28"
       transform="translate(-145,19.8)"
       style="stroke-width:4">
      <rect
         x="303"
         y="495"
         width="128"
         height="128"
         stroke="white"
         stroke-linecap="round"
         stroke-linejoin="round"
         stroke-width="1"
         id="rect15-6-8-3"
         style="fill:none;fill-opacity:0.67451;stroke:none;stroke-width:4;stroke-opacity:1"
         transform="translate(-15,-19.8)" />
      <path
         id="path11"
         style="fill:none;stroke:white;stroke-width:4;stroke-linecap:round;stroke-linejoin:round;stroke-opacity:0.990196;paint-order:fill markers stroke"
         d="m 326,503.7 c 0,0 61,-1.30548 61,19.00149 0,20.30698 -70,10.14845 -70,31.07348 C 317,574.7 378,574.7 378,574.7 v 0 m 17,0 a 8,8 0 0 1 -8,8 8,8 0 0 1 -8,-8 8,8 0 0 1 8,-8 8,8 0 0 1 8,8 z m -70,-71 a 8,8 0 0 1 -8,8 8,8 0 0 1 -8,-8 8,8 0 0 1 8,-8 8,8 0 0 1 8,8 z" />
    </g>
  </g>
</svg>
