<?xml version="1.0" encoding="UTF-8" standalone="no"?>
<svg
   version="1.1"
   viewBox="127 319 128 128"
   width="128"
   height="128"
   id="svg17"
   xmlns="http://www.w3.org/2000/svg"
   xmlns:svg="http://www.w3.org/2000/svg"
   xmlns:rdf="http://www.w3.org/1999/02/22-rdf-syntax-ns#"
   xmlns:cc="http://creativecommons.org/ns#"
   xmlns:dc="http://purl.org/dc/elements/1.1/">
  <title
     id="title17">Poietic Playground UI Icons</title>
  <defs
     id="defs1" />
  <metadata
     id="metadata17">
    <rdf:RDF>
      <cc:Work
         rdf:about="">
        <dc:title>Poietic Playground UI Icons</dc:title>
        <dc:creator>
          <cc:Agent>
            <dc:title>Stefan Urbanek</dc:title>
          </cc:Agent>
        </dc:creator>
        <cc:license
           rdf:resource="http://creativecommons.org/licenses/by-sa/4.0/" />
      </cc:Work>
      <cc:License
         rdf:about="http://creativecommons.org/licenses/by-sa/4.0/">
        <cc:permits
           rdf:resource="http://creativecommons.org/ns#Reproduction" />
        <cc:permits
           rdf:resource="http://creativecommons.org/ns#Distribution" />
        <cc:requires
           rdf:resource="http://creativecommons.org/ns#Notice" />
        <cc:requires
           rdf:resource="http://creativecommons.org/ns#Attribution" />
        <cc:permits
           rdf:resource="http://creativecommons.org/ns#DerivativeWorks" />
        <cc:requires
           rdf:resource="http://creativecommons.org/ns#ShareAlike" />
      </cc:License>
    </rdf:RDF>
  </metadata>
  <g
     id="layer2"
     transform="translate(-16.000109,-2575.7274)">
    <g
       id="Group_138-9"
       transform="translate(-321.63075,1956)"
       style="stroke-width:4">
      <rect
         x="464.63086"
         y="938.72736"
         width="128"
         height="128"
         stroke="white"
         stroke-linecap="round"
         stroke-linejoin="round"
         stroke-width="1"
         id="rect15-6-8-1-7"
         style="fill:none;fill-opacity:0.67451;stroke:none;stroke-width:4;stroke-opacity:1" />
      <path
         id="path20"
         style="fill:none;stroke:white;stroke-width:4;stroke-linecap:round;stroke-linejoin:round;stroke-opacity:0.990196;paint-order:fill markers stroke"
         d="m 494.63075,1033.0372 a 12.499801,30.162241 0 0 1 -1.13697,0.125 12.499801,30.162241 0 0 1 -12.4998,-30.1622 12.499801,30.162241 0 0 1 12.4998,-30.16223 12.499801,30.162241 0 0 1 1.13543,0.1247 M 562.63075,973 a 13.19894,30.162241 0 0 1 12,30.0376 v 0 a 13.19894,30.162241 0 0 1 -11.99837,30.0372 M 505.63075,1026 l 46,-46 m -40.81655,35.0597 a 21.562453,21.758542 0 0 1 -3.74585,-12.2558 21.562453,21.758542 0 0 1 21.56244,-21.75838 21.562453,21.758542 0 0 1 12.30475,3.89068 m 5.66724,5.84538 a 21.562453,21.758542 0 0 1 3.59046,12.02232 v 0 a 21.562453,21.758542 0 0 1 -21.56245,21.7586 21.562453,21.758542 0 0 1 -12.07397,-3.7311" />
    </g>
  </g>
</svg>
