<?xml version="1.0" encoding="UTF-8" standalone="no"?>
<!-- Created with Inkscape (http://www.inkscape.org/) -->

<svg
   width="10.5mm"
   height="13.399999mm"
   viewBox="0 0 10.5 13.399999"
   version="1.1"
   id="svg1"
   xml:space="preserve"
   xmlns="http://www.w3.org/2000/svg"
   xmlns:svg="http://www.w3.org/2000/svg"
   xmlns:rdf="http://www.w3.org/1999/02/22-rdf-syntax-ns#"
   xmlns:cc="http://creativecommons.org/ns#"
   xmlns:dc="http://purl.org/dc/elements/1.1/"><title
     id="title19">Poietic Pictograms</title><defs
     id="defs1" /><g
     id="layer3"
     style="display:none"
     transform="translate(-55.449046,-21.300001)"><ellipse
       style="fill:#fea;stroke:none;stroke-width:0.3;stroke-linecap:round;stroke-linejoin:round;stroke-opacity:0.990196;paint-order:fill markers stroke"
       id="path1"
       ry="6.6548433"
       rx="6.7892847"
       cy="27.804844"
       cx="60.699047" /></g><g
     id="layer1"
     style="stroke-width:0.5"
     transform="translate(-55.449046,-21.300001)"><g
       id="g4"
       transform="translate(-4.4509522,-5.4000011)"
       style="stroke-width:0.5"><path
         id="path4"
         style="fill:none;stroke:black;stroke-width:0.5;stroke-linecap:round;stroke-linejoin:round;stroke-opacity:0.990196;paint-order:fill markers stroke"
         d="m 66.149999,29.15 v 0.7 m -2.000002,-0.7 v 0.7 M 62.3,26.950002 H 68 c 0.554,0 1,0.446 1,1 0,0.554 -0.446,1 -1,1 h -5.7 c -0.554,0 -1,-0.446 -1,-1 0,-0.554 0.446,-1 1,-1 z m 7.849998,7.899999 a 5,5 0 0 1 -5,5 5,5 0 0 1 -5,-5 5,5 0 0 1 5,-5 5,5 0 0 1 5,5 z" /></g></g><metadata
     id="metadata19"><rdf:RDF><cc:Work
         rdf:about=""><cc:license
           rdf:resource="http://creativecommons.org/licenses/by-sa/4.0/" /><dc:title>Poietic Pictograms</dc:title><dc:creator><cc:Agent><dc:title>Stefan Urbanek</dc:title></cc:Agent></dc:creator></cc:Work><cc:License
         rdf:about="http://creativecommons.org/licenses/by-sa/4.0/"><cc:permits
           rdf:resource="http://creativecommons.org/ns#Reproduction" /><cc:permits
           rdf:resource="http://creativecommons.org/ns#Distribution" /><cc:requires
           rdf:resource="http://creativecommons.org/ns#Notice" /><cc:requires
           rdf:resource="http://creativecommons.org/ns#Attribution" /><cc:permits
           rdf:resource="http://creativecommons.org/ns#DerivativeWorks" /><cc:requires
           rdf:resource="http://creativecommons.org/ns#ShareAlike" /></cc:License></rdf:RDF></metadata></svg>
