<?xml version="1.0" encoding="UTF-8" standalone="no"?>
<!-- Created with Inkscape (http://www.inkscape.org/) -->

<svg
   width="10.299999mm"
   height="10.3mm"
   viewBox="0 0 10.299999 10.3"
   version="1.1"
   id="svg1"
   inkscape:version="1.4 (e7c3feb1, 2024-10-09)"
   sodipodi:docname="pictograms.svg"
   xml:space="preserve"
   inkscape:export-batch-path="out"
   inkscape:export-batch-name=""
   xmlns:inkscape="http://www.inkscape.org/namespaces/inkscape"
   xmlns:sodipodi="http://sodipodi.sourceforge.net/DTD/sodipodi-0.dtd"
   xmlns="http://www.w3.org/2000/svg"
   xmlns:svg="http://www.w3.org/2000/svg"
   xmlns:rdf="http://www.w3.org/1999/02/22-rdf-syntax-ns#"
   xmlns:cc="http://creativecommons.org/ns#"
   xmlns:dc="http://purl.org/dc/elements/1.1/"><title
     id="title19">Poietic Pictograms</title><sodipodi:namedview
     id="namedview1"
     pagecolor="#ffffff"
     bordercolor="#000000"
     borderopacity="0.25"
     inkscape:showpageshadow="2"
     inkscape:pageopacity="0.0"
     inkscape:pagecheckerboard="0"
     inkscape:deskcolor="#d1d1d1"
     inkscape:document-units="mm"
     inkscape:zoom="1.4183585"
     inkscape:cx="184.36806"
     inkscape:cy="233.72088"
     inkscape:window-width="1472"
     inkscape:window-height="838"
     inkscape:window-x="1576"
     inkscape:window-y="574"
     inkscape:window-maximized="0"
     inkscape:current-layer="layer3"
     showgrid="true"><inkscape:grid
       id="grid2"
       units="mm"
       originx="-39.999998"
       originy="-59.700001"
       spacingx="1"
       spacingy="0.99999998"
       empcolor="#0099e5"
       empopacity="0.30196078"
       color="#0099e5"
       opacity="0.14901961"
       empspacing="10"
       enabled="true"
       visible="true" /></sodipodi:namedview><defs
     id="defs1" /><g
     inkscape:label="pictograms"
     inkscape:groupmode="layer"
     id="layer1"
     transform="translate(-39.999999,-59.700001)"><g
       id="g6"
       inkscape:label="GraphicalFunction"
       transform="translate(-39.7,40.000001)"><ellipse
         style="fill:none;stroke:black;stroke-width:0.3;stroke-linecap:round;stroke-linejoin:round;stroke-opacity:0.990196;paint-order:fill markers stroke"
         id="path5"
         cx="84.849998"
         cy="24.85"
         rx="4.9999995"
         ry="5" /><path
         id="path8-8-0-7"
         style="fill:none;stroke:black;stroke-width:0.3;stroke-linecap:round;stroke-linejoin:round;stroke-opacity:0.990196;paint-order:fill markers stroke"
         d="m 103.5,26.549997 a 0.34999999,0.34999999 0 0 1 -0.35,0.35 0.34999999,0.34999999 0 0 1 -0.35,-0.35 0.34999999,0.34999999 0 0 1 0.35,-0.35 0.34999999,0.34999999 0 0 1 0.35,0.35 z m 3.39999,-3.399993 a 0.34999999,0.34999999 0 0 1 -0.35,0.35 0.34999999,0.34999999 0 0 1 -0.35,-0.35 0.34999999,0.34999999 0 0 1 0.35,-0.35 0.34999999,0.34999999 0 0 1 0.35,0.35 z M 105.2,26.549997 a 0.34999999,0.34999999 0 0 1 -0.35,0.35 0.34999999,0.34999999 0 0 1 -0.35,-0.35 0.34999999,0.34999999 0 0 1 0.35,-0.35 0.34999999,0.34999999 0 0 1 0.35,0.35 z m -0.85,-1.699996 a 0.34999999,0.34999999 0 0 1 -0.35,0.35 0.34999999,0.34999999 0 0 1 -0.35,-0.35 0.34999999,0.34999999 0 0 1 0.35,-0.35 0.34999999,0.34999999 0 0 1 0.35,0.35 z m -1.2,1.7 0.85,-1.7 0.85,1.7 1.7,-3.400001"
         transform="translate(-19.999999)" /></g></g><metadata
     id="metadata19"><rdf:RDF><cc:Work
         rdf:about=""><cc:license
           rdf:resource="http://creativecommons.org/licenses/by-sa/4.0/" /><dc:title>Poietic Pictograms</dc:title><dc:creator><cc:Agent><dc:title>Stefan Urbanek</dc:title></cc:Agent></dc:creator></cc:Work><cc:License
         rdf:about="http://creativecommons.org/licenses/by-sa/4.0/"><cc:permits
           rdf:resource="http://creativecommons.org/ns#Reproduction" /><cc:permits
           rdf:resource="http://creativecommons.org/ns#Distribution" /><cc:requires
           rdf:resource="http://creativecommons.org/ns#Notice" /><cc:requires
           rdf:resource="http://creativecommons.org/ns#Attribution" /><cc:permits
           rdf:resource="http://creativecommons.org/ns#DerivativeWorks" /><cc:requires
           rdf:resource="http://creativecommons.org/ns#ShareAlike" /></cc:License></rdf:RDF></metadata></svg>
