<?xml version="1.0" encoding="UTF-8" standalone="no"?>
<!-- Created with Inkscape (http://www.inkscape.org/) -->

<svg
   width="10.499999mm"
   height="10.5mm"
   viewBox="0 0 10.499999 10.5"
   version="1.1"
   id="svg1"
   xml:space="preserve"
   xmlns="http://www.w3.org/2000/svg"
   xmlns:svg="http://www.w3.org/2000/svg"
   xmlns:rdf="http://www.w3.org/1999/02/22-rdf-syntax-ns#"
   xmlns:cc="http://creativecommons.org/ns#"
   xmlns:dc="http://purl.org/dc/elements/1.1/"><title
     id="title19">Poietic Pictograms</title><defs
     id="defs1" /><g
     id="layer1"
     style="stroke-width:0.5"
     transform="translate(-39.899999,-59.600001)"><g
       id="g6"
       transform="translate(-39.7,40.000001)"
       style="stroke-width:0.5"><ellipse
         style="fill:none;stroke:black;stroke-width:0.5;stroke-linecap:round;stroke-linejoin:round;stroke-opacity:0.990196;paint-order:fill markers stroke"
         id="path5"
         cx="84.849998"
         cy="24.85"
         rx="4.9999995"
         ry="5" /><path
         id="path8-8-0-7"
         style="fill:none;stroke:black;stroke-width:0.5;stroke-linecap:round;stroke-linejoin:round;stroke-opacity:0.990196;paint-order:fill markers stroke"
         d="m 103.5,26.549997 a 0.34999999,0.34999999 0 0 1 -0.35,0.35 0.34999999,0.34999999 0 0 1 -0.35,-0.35 0.34999999,0.34999999 0 0 1 0.35,-0.35 0.34999999,0.34999999 0 0 1 0.35,0.35 z m 3.39999,-3.399993 a 0.34999999,0.34999999 0 0 1 -0.35,0.35 0.34999999,0.34999999 0 0 1 -0.35,-0.35 0.34999999,0.34999999 0 0 1 0.35,-0.35 0.34999999,0.34999999 0 0 1 0.35,0.35 z M 105.2,26.549997 a 0.34999999,0.34999999 0 0 1 -0.35,0.35 0.34999999,0.34999999 0 0 1 -0.35,-0.35 0.34999999,0.34999999 0 0 1 0.35,-0.35 0.34999999,0.34999999 0 0 1 0.35,0.35 z m -0.85,-1.699996 a 0.34999999,0.34999999 0 0 1 -0.35,0.35 0.34999999,0.34999999 0 0 1 -0.35,-0.35 0.34999999,0.34999999 0 0 1 0.35,-0.35 0.34999999,0.34999999 0 0 1 0.35,0.35 z m -1.2,1.7 0.85,-1.7 0.85,1.7 1.7,-3.400001"
         transform="translate(-19.999999)" /></g></g><metadata
     id="metadata19"><rdf:RDF><cc:Work
         rdf:about=""><cc:license
           rdf:resource="http://creativecommons.org/licenses/by-sa/4.0/" /><dc:title>Poietic Pictograms</dc:title><dc:creator><cc:Agent><dc:title>Stefan Urbanek</dc:title></cc:Agent></dc:creator></cc:Work><cc:License
         rdf:about="http://creativecommons.org/licenses/by-sa/4.0/"><cc:permits
           rdf:resource="http://creativecommons.org/ns#Reproduction" /><cc:permits
           rdf:resource="http://creativecommons.org/ns#Distribution" /><cc:requires
           rdf:resource="http://creativecommons.org/ns#Notice" /><cc:requires
           rdf:resource="http://creativecommons.org/ns#Attribution" /><cc:permits
           rdf:resource="http://creativecommons.org/ns#DerivativeWorks" /><cc:requires
           rdf:resource="http://creativecommons.org/ns#ShareAlike" /></cc:License></rdf:RDF></metadata></svg>
