<?xml version="1.0" encoding="UTF-8" standalone="no"?>
<!-- Created with Inkscape (http://www.inkscape.org/) -->

<svg
   width="10.299999mm"
   height="10.3mm"
   viewBox="0 0 10.299999 10.3"
   version="1.1"
   id="svg1"
   inkscape:version="1.4 (e7c3feb1, 2024-10-09)"
   sodipodi:docname="pictograms.svg"
   xml:space="preserve"
   inkscape:export-batch-path="out"
   inkscape:export-batch-name=""
   xmlns:inkscape="http://www.inkscape.org/namespaces/inkscape"
   xmlns:sodipodi="http://sodipodi.sourceforge.net/DTD/sodipodi-0.dtd"
   xmlns="http://www.w3.org/2000/svg"
   xmlns:svg="http://www.w3.org/2000/svg"
   xmlns:rdf="http://www.w3.org/1999/02/22-rdf-syntax-ns#"
   xmlns:cc="http://creativecommons.org/ns#"
   xmlns:dc="http://purl.org/dc/elements/1.1/"><title
     id="title19">Poietic Pictograms</title><sodipodi:namedview
     id="namedview1"
     pagecolor="#ffffff"
     bordercolor="#000000"
     borderopacity="0.25"
     inkscape:showpageshadow="2"
     inkscape:pageopacity="0.0"
     inkscape:pagecheckerboard="0"
     inkscape:deskcolor="#d1d1d1"
     inkscape:document-units="mm"
     inkscape:zoom="1.4183585"
     inkscape:cx="184.36806"
     inkscape:cy="233.72088"
     inkscape:window-width="1472"
     inkscape:window-height="838"
     inkscape:window-x="1576"
     inkscape:window-y="574"
     inkscape:window-maximized="0"
     inkscape:current-layer="layer3"
     showgrid="true"><inkscape:grid
       id="grid2"
       units="mm"
       originx="-19.845462"
       originy="-89.223561"
       spacingx="1"
       spacingy="0.99999998"
       empcolor="#0099e5"
       empopacity="0.30196078"
       color="#0099e5"
       opacity="0.14901961"
       empspacing="10"
       enabled="true"
       visible="true" /></sodipodi:namedview><defs
     id="defs1" /><g
     inkscape:label="pictograms"
     inkscape:groupmode="layer"
     id="layer1"
     transform="translate(-19.845462,-89.223562)"><g
       id="g18"
       transform="translate(-19.854538,9.5235601)"
       inkscape:label="Unknown"><path
         d="m 189,504 v 32 l 31,62 32,32 94,32 h 95 l 95,-32 31,-32 31,-62 V 472 L 567,410 536,378 472,346 378,315 M 189,504 h 31 v 32 l 32,62 94,32 h 95 l 95,-32 31,-62 v -64 l -31,-62 -64,-32 -94,-32 m -158,221 95,63 m 157,0 95,-63 m 0,-126 -126,-95 m -63,0 V 220 h 32 V 346 M 378,94.5 346,63 V 31.5 L 378,0 h 32 l 31,31.5 V 63 L 410,94.5 H 378 M 378,63 V 31.5 h 32 V 63 h -32"
         style="fill:none;stroke:black;stroke-width:0.453167in;stroke-linecap:round;stroke-linejoin:round"
         transform="matrix(0.00603392,0,0,-0.00603392,42.47565,86.84723)"
         id="path15" /><ellipse
         style="fill:none;stroke:black;stroke-width:0.3;stroke-linecap:round;stroke-linejoin:round;stroke-opacity:0.990196;paint-order:fill markers stroke"
         id="ellipse8-2"
         cx="84.849998"
         cy="24.85"
         rx="4.9999995"
         ry="5"
         transform="translate(-39.999999,60.000002)" /></g></g><metadata
     id="metadata19"><rdf:RDF><cc:Work
         rdf:about=""><cc:license
           rdf:resource="http://creativecommons.org/licenses/by-sa/4.0/" /><dc:title>Poietic Pictograms</dc:title><dc:creator><cc:Agent><dc:title>Stefan Urbanek</dc:title></cc:Agent></dc:creator></cc:Work><cc:License
         rdf:about="http://creativecommons.org/licenses/by-sa/4.0/"><cc:permits
           rdf:resource="http://creativecommons.org/ns#Reproduction" /><cc:permits
           rdf:resource="http://creativecommons.org/ns#Distribution" /><cc:requires
           rdf:resource="http://creativecommons.org/ns#Notice" /><cc:requires
           rdf:resource="http://creativecommons.org/ns#Attribution" /><cc:permits
           rdf:resource="http://creativecommons.org/ns#DerivativeWorks" /><cc:requires
           rdf:resource="http://creativecommons.org/ns#ShareAlike" /></cc:License></rdf:RDF></metadata></svg>
